<svg xmlns="http://www.w3.org/2000/svg" viewBox="0 0 980 298" width="980" height="298"><title>logo2</title><defs><radialGradient id="grd1" gradientUnits="userSpaceOnUse" cx="143.5" cy="148.5" r="127.5"><stop offset="2.358" stop-color="#ffc014"></stop><stop offset="74.528" stop-color="#fdc11c"></stop><stop offset="99.528" stop-color="#f6b505" stop-opacity="255"></stop><stop offset="99.528" stop-color="#f5b200"></stop></radialGradient><image width="272" height="288" id="img1"></image><linearGradient id="grd2" gradientUnits="userSpaceOnUse" x1="302.424" y1="140.336" x2="20.427" y2="233.655"><stop offset="0" stop-color="#ffffff"></stop><stop offset="1" stop-color="#b3b3b3"></stop></linearGradient><linearGradient id="grd3" gradientUnits="userSpaceOnUse" x1="25393.417" y1="18548.648" x2="25393.417" y2="16655.119"><stop offset="0" stop-color="#ffffff"></stop><stop offset="1" stop-color="#b3b3b3"></stop></linearGradient><linearGradient id="grd4" gradientUnits="userSpaceOnUse" x1="285.354" y1="86.275" x2="3.363" y2="179.588"><stop offset="0.14" stop-color="#ffffff"></stop><stop offset="0.55" stop-color="#ffffff"></stop></linearGradient></defs><style>		tspan { white-space:pre }		.shp0 { fill: url(#grd1) } 		.shp1 { fill: url(#grd2) } 		.shp2 { fill: url(#grd3) } 		.shp3 { fill: url(#grd4) } 	</style><path id="Layer" class="shp0" d="M143.5 276C72.99 276 16 219.01 16 148.5C16 77.99 72.99 21 143.5 21C214.01 21 271 77.99 271 148.5C271 219.01 214.01 276 143.5 276Z"></path><use id="Plasfy Letter P Logo - White SVG" style="display: none" href="#img1" transform="matrix(0.573,0,0,0.573,70.953,67.781)"></use><path id="Layer" class="shp1" d="M129.18 183.51L129.18 212.89C129.18 215.58 128.65 218.24 127.62 220.72C126.59 223.21 125.09 225.47 123.19 227.37C121.28 229.27 119.03 230.78 116.54 231.81C114.06 232.84 111.39 233.37 108.71 233.37L78 233.37L78 184.86L129.18 183.51Z"></path><path id="Layer" class="shp2" d="M129.18 83.43L129.18 118.19C129.18 120.88 128.65 123.54 127.62 126.02C126.59 128.51 125.09 130.77 123.19 132.67C121.28 134.57 119.03 136.07 116.54 137.1C114.06 138.14 111.39 138.66 108.71 138.66L78 138.66L78 98.58L129.18 83.43Z"></path><path id="Layer" class="shp3" d="M98.47 118.19C95.79 118.19 93.12 118.71 90.64 119.75C88.16 120.78 85.9 122.28 84 124.18C82.1 126.08 80.59 128.34 79.56 130.83C78.53 133.31 78 135.97 78 138.66L78 87.47C78 84.79 78.53 82.12 79.56 79.64C80.59 77.16 82.1 74.9 84 73C85.9 71.1 88.16 69.59 90.64 68.56C93.12 67.53 95.79 67 98.47 67L167.11 67C185.32 66.83 202.85 73.95 215.79 86.77C228.72 99.58 236 117.04 236 135.25C236 153.47 228.72 170.92 215.79 183.74C202.85 196.56 185.32 203.67 167.11 203.51L98.47 203.51C95.79 203.51 93.12 204.03 90.64 205.06C88.16 206.1 85.9 207.6 84 209.5C82.1 211.4 80.59 213.66 79.56 216.15C78.53 218.63 78 221.29 78 223.98L78 172.79C78 170.1 78.53 167.44 79.56 164.96C80.59 162.47 82.1 160.21 84 158.31C85.9 156.41 88.16 154.91 90.64 153.88C93.12 152.85 95.79 152.32 98.47 152.32L167.11 152.32C171.64 152.32 175.98 150.52 179.18 147.32C182.38 144.12 184.18 139.78 184.18 135.26C184.18 130.73 182.38 126.39 179.18 123.19C175.98 119.99 171.64 118.19 167.11 118.19L98.47 118.19Z"></path><path id="Plasfy" fill="#212329" aria-label="Plasfy" d="M350.3 70.24L409.49 70.24Q432.4 70.24 448.05 85.66Q463.7 101.08 463.7 123.54Q463.7 145.99 448.05 161.41Q432.4 176.84 409.49 176.84L381.6 176.84L381.6 229L350.3 229L350.3 70.24ZM381.6 147.58L409.49 147.58Q419.47 147.58 426.05 140.77Q432.63 133.74 432.63 123.54Q432.63 113.1 426.05 106.3Q419.47 99.5 409.49 99.5L381.6 99.5L381.6 147.58ZM512.01 229L482.75 229L482.75 63.43L512.01 63.43L512.01 229ZM624.95 128.98L624.95 115.6L654.21 115.6L654.21 229L624.95 229L624.95 215.62Q611.8 232.18 587.99 232.18Q565.31 232.18 548.98 214.94Q532.87 197.47 532.87 172.3Q532.87 147.12 548.98 129.89Q565.31 112.42 587.99 112.42Q611.8 112.42 624.95 128.98ZM570.98 195.43Q579.82 204.28 593.43 204.28Q607.04 204.28 615.88 195.43Q624.95 186.36 624.95 172.3Q624.95 158.24 615.88 149.39Q607.04 140.32 593.43 140.32Q579.82 140.32 570.98 149.39Q562.13 158.24 562.13 172.3Q562.13 186.36 570.98 195.43ZM706.83 147.8Q706.83 152.34 712.73 155.29Q718.85 158.01 727.47 160.28Q736.09 162.32 744.71 165.72Q753.32 168.9 759.22 176.61Q765.35 184.32 765.35 195.89Q765.35 213.35 752.19 222.88Q739.26 232.18 719.76 232.18Q684.83 232.18 672.13 205.19L697.53 190.9Q702.52 205.64 719.76 205.64Q735.41 205.64 735.41 195.89Q735.41 191.35 729.28 188.63Q723.39 185.68 714.77 183.41Q706.15 181.14 697.53 177.74Q688.91 174.34 682.79 167.08Q676.89 159.6 676.89 148.49Q676.89 131.7 689.14 122.18Q701.61 112.42 719.98 112.42Q733.82 112.42 745.16 118.77Q756.5 124.9 763.08 136.46L738.13 150.07Q732.69 138.51 719.98 138.51Q714.31 138.51 710.46 141Q706.83 143.5 706.83 147.8ZM843.82 67.06L843.82 95.19Q819.78 93.37 819.78 114.47L819.78 115.6L843.82 115.6L843.82 143.72L819.78 143.72L819.78 229L790.52 229L790.52 143.72L774.19 143.72L774.19 115.6L790.52 115.6L790.52 114.47Q790.52 90.42 803.9 77.95Q817.28 65.48 843.82 67.06ZM910.5 191.8L935.67 115.6L966.97 115.6L925.69 229Q916.85 253.49 902.11 264.61Q887.59 275.49 865.82 274.36L865.82 247.14Q877.61 247.37 884.42 242.15Q891.45 236.94 895.53 225.37L849.03 115.6L881.01 115.6L910.5 191.8Z"></path></svg>